<svg xmlns="http://www.w3.org/2000/svg" xmlns:xlink="http://www.w3.org/1999/xlink" width="500" zoomAndPan="magnify" viewBox="0 0 375 374.999991" height="500" preserveAspectRatio="xMidYMid meet" version="1.0"><defs><g/><clipPath id="1d7d4a8018"><path d="M 10.695312 87.046875 L 363.945312 87.046875 L 363.945312 184.546875 L 10.695312 184.546875 Z M 10.695312 87.046875 " clip-rule="nonzero"/></clipPath></defs><rect x="-37.5" width="450" fill="#ffffff" y="-37.499999" height="449.999989" fill-opacity="1"/><rect x="-37.5" width="450" fill="#000000" y="-37.499999" height="449.999989" fill-opacity="1"/><g clip-path="url(#1d7d4a8018)"><path fill="#ffffff" d="M 187.5 102.320312 L 364.300781 184.21875 L 188.179688 87.6875 L 187.882812 87.105469 L 187.5 87.316406 L 187.113281 87.105469 L 186.816406 87.6875 L 10.695312 184.21875 L 187.5 102.320312 " fill-opacity="1" fill-rule="nonzero"/></g><g fill="#ffffff" fill-opacity="1"><g transform="translate(52.125001, 202.499987)"><g><path d="M 29.203125 -31.953125 L 29.203125 0 L 26.09375 0 L 26.09375 -14.9375 L 7.15625 -14.9375 L 7.15625 0 L 4 0 L 4 -31.953125 L 7.15625 -31.953125 L 7.15625 -17.734375 L 26.09375 -17.734375 L 26.09375 -31.953125 Z M 29.203125 -31.953125 "/></g></g></g><g fill="#ffffff" fill-opacity="1"><g transform="translate(85.334964, 202.499987)"><g><path d="M 16.875 0.21875 C 14.625 0.21875 12.582031 -0.226562 10.75 -1.125 C 8.925781 -2.019531 7.351562 -3.238281 6.03125 -4.78125 C 4.707031 -6.332031 3.6875 -8.078125 2.96875 -10.015625 C 2.25 -11.953125 1.890625 -13.9375 1.890625 -15.96875 C 1.890625 -18.101562 2.265625 -20.132812 3.015625 -22.0625 C 3.765625 -24 4.820312 -25.722656 6.1875 -27.234375 C 7.550781 -28.753906 9.144531 -29.957031 10.96875 -30.84375 C 12.800781 -31.726562 14.785156 -32.171875 16.921875 -32.171875 C 19.171875 -32.171875 21.207031 -31.707031 23.03125 -30.78125 C 24.863281 -29.851562 26.429688 -28.609375 27.734375 -27.046875 C 29.046875 -25.484375 30.0625 -23.738281 30.78125 -21.8125 C 31.5 -19.894531 31.859375 -17.9375 31.859375 -15.9375 C 31.859375 -13.800781 31.484375 -11.765625 30.734375 -9.828125 C 29.984375 -7.898438 28.929688 -6.175781 27.578125 -4.65625 C 26.234375 -3.144531 24.644531 -1.953125 22.8125 -1.078125 C 20.976562 -0.210938 19 0.21875 16.875 0.21875 Z M 5.046875 -15.96875 C 5.046875 -14.226562 5.328125 -12.554688 5.890625 -10.953125 C 6.460938 -9.347656 7.273438 -7.921875 8.328125 -6.671875 C 9.378906 -5.429688 10.628906 -4.441406 12.078125 -3.703125 C 13.535156 -2.972656 15.132812 -2.609375 16.875 -2.609375 C 18.707031 -2.609375 20.347656 -2.988281 21.796875 -3.75 C 23.253906 -4.519531 24.5 -5.539062 25.53125 -6.8125 C 26.570312 -8.09375 27.359375 -9.523438 27.890625 -11.109375 C 28.429688 -12.703125 28.703125 -14.320312 28.703125 -15.96875 C 28.703125 -17.707031 28.414062 -19.375 27.84375 -20.96875 C 27.28125 -22.5625 26.46875 -23.988281 25.40625 -25.25 C 24.34375 -26.507812 23.085938 -27.5 21.640625 -28.21875 C 20.203125 -28.9375 18.613281 -29.296875 16.875 -29.296875 C 15.070312 -29.296875 13.441406 -28.921875 11.984375 -28.171875 C 10.535156 -27.421875 9.289062 -26.40625 8.25 -25.125 C 7.21875 -23.851562 6.425781 -22.421875 5.875 -20.828125 C 5.320312 -19.242188 5.046875 -17.625 5.046875 -15.96875 Z M 5.046875 -15.96875 "/></g></g></g><g fill="#ffffff" fill-opacity="1"><g transform="translate(119.129925, 202.499987)"><g><path d="M 32.3125 0 L 32.3125 -26.015625 L 20.75 -5.8125 L 18.765625 -5.8125 L 7.15625 -26.015625 L 7.15625 0 L 4 0 L 4 -31.953125 L 7.25 -31.953125 L 19.703125 -10.078125 L 32.265625 -31.953125 L 35.453125 -31.953125 L 35.453125 0 Z M 32.3125 0 "/></g></g></g><g fill="#ffffff" fill-opacity="1"><g transform="translate(158.594885, 202.499987)"><g><path d="M 25.46875 -2.796875 L 25.46875 0 L 4 0 L 4 -31.953125 L 25.0625 -31.953125 L 25.0625 -29.15625 L 7.15625 -29.15625 L 7.15625 -17.640625 L 22.765625 -17.640625 L 22.765625 -14.984375 L 7.15625 -14.984375 L 7.15625 -2.796875 Z M 25.46875 -2.796875 "/></g></g></g><g fill="#ffffff" fill-opacity="1"><g transform="translate(193.499992, 202.499987)"><g><path d="M 1.390625 -16.203125 C 1.390625 -18.148438 1.742188 -20.0625 2.453125 -21.9375 C 3.160156 -23.8125 4.1875 -25.519531 5.53125 -27.0625 C 6.882812 -28.613281 8.535156 -29.84375 10.484375 -30.75 C 12.429688 -31.664062 14.648438 -32.125 17.140625 -32.125 C 20.085938 -32.125 22.628906 -31.476562 24.765625 -30.1875 C 26.910156 -28.90625 28.507812 -27.226562 29.5625 -25.15625 L 24.796875 -21.875 C 24.253906 -23.070312 23.546875 -24.019531 22.671875 -24.71875 C 21.804688 -25.425781 20.878906 -25.921875 19.890625 -26.203125 C 18.898438 -26.492188 17.925781 -26.640625 16.96875 -26.640625 C 15.40625 -26.640625 14.046875 -26.320312 12.890625 -25.6875 C 11.734375 -25.0625 10.765625 -24.238281 9.984375 -23.21875 C 9.203125 -22.195312 8.625 -21.054688 8.25 -19.796875 C 7.875 -18.535156 7.6875 -17.273438 7.6875 -16.015625 C 7.6875 -14.609375 7.910156 -13.25 8.359375 -11.9375 C 8.816406 -10.632812 9.457031 -9.476562 10.28125 -8.46875 C 11.101562 -7.46875 12.09375 -6.675781 13.25 -6.09375 C 14.40625 -5.507812 15.675781 -5.21875 17.0625 -5.21875 C 18.050781 -5.21875 19.050781 -5.378906 20.0625 -5.703125 C 21.082031 -6.035156 22.023438 -6.5625 22.890625 -7.28125 C 23.765625 -8.007812 24.445312 -8.941406 24.9375 -10.078125 L 30.015625 -7.15625 C 29.378906 -5.5625 28.347656 -4.207031 26.921875 -3.09375 C 25.503906 -1.988281 23.910156 -1.148438 22.140625 -0.578125 C 20.367188 -0.015625 18.613281 0.265625 16.875 0.265625 C 14.59375 0.265625 12.503906 -0.203125 10.609375 -1.140625 C 8.722656 -2.085938 7.097656 -3.347656 5.734375 -4.921875 C 4.367188 -6.503906 3.300781 -8.273438 2.53125 -10.234375 C 1.769531 -12.203125 1.390625 -14.191406 1.390625 -16.203125 Z M 1.390625 -16.203125 "/></g></g></g><g fill="#ffffff" fill-opacity="1"><g transform="translate(224.369958, 202.499987)"><g><path d="M 3.328125 0 L 3.328125 -31.953125 L 9.546875 -31.953125 L 9.546875 -5.4375 L 25.828125 -5.4375 L 25.828125 0 Z M 3.328125 0 "/></g></g></g><g fill="#ffffff" fill-opacity="1"><g transform="translate(250.649929, 202.499987)"><g><path d="M 16.875 0.21875 C 14.320312 0.21875 12.148438 -0.207031 10.359375 -1.0625 C 8.578125 -1.914062 7.140625 -3.09375 6.046875 -4.59375 C 4.953125 -6.09375 4.148438 -7.796875 3.640625 -9.703125 C 3.128906 -11.609375 2.875 -13.59375 2.875 -15.65625 L 2.875 -31.953125 L 9.09375 -31.953125 L 9.09375 -15.65625 C 9.09375 -14.34375 9.21875 -13.0625 9.46875 -11.8125 C 9.726562 -10.5625 10.15625 -9.441406 10.75 -8.453125 C 11.351562 -7.460938 12.148438 -6.679688 13.140625 -6.109375 C 14.128906 -5.546875 15.359375 -5.265625 16.828125 -5.265625 C 18.328125 -5.265625 19.578125 -5.554688 20.578125 -6.140625 C 21.585938 -6.722656 22.382812 -7.507812 22.96875 -8.5 C 23.550781 -9.488281 23.976562 -10.601562 24.25 -11.84375 C 24.519531 -13.09375 24.65625 -14.363281 24.65625 -15.65625 L 24.65625 -31.953125 L 30.828125 -31.953125 L 30.828125 -15.65625 C 30.828125 -13.46875 30.5625 -11.410156 30.03125 -9.484375 C 29.507812 -7.566406 28.6875 -5.878906 27.5625 -4.421875 C 26.4375 -2.972656 24.988281 -1.835938 23.21875 -1.015625 C 21.445312 -0.191406 19.332031 0.21875 16.875 0.21875 Z M 16.875 0.21875 "/></g></g></g><g fill="#ffffff" fill-opacity="1"><g transform="translate(284.399892, 202.499987)"><g><path d="M 29.0625 -8.234375 C 29.0625 -6.429688 28.597656 -4.921875 27.671875 -3.703125 C 26.742188 -2.492188 25.492188 -1.570312 23.921875 -0.9375 C 22.347656 -0.3125 20.628906 0 18.765625 0 L 3.328125 0 L 3.328125 -31.953125 L 20.4375 -31.953125 C 21.9375 -31.953125 23.234375 -31.550781 24.328125 -30.75 C 25.421875 -29.957031 26.257812 -28.9375 26.84375 -27.6875 C 27.425781 -26.445312 27.71875 -25.15625 27.71875 -23.8125 C 27.71875 -22.28125 27.328125 -20.820312 26.546875 -19.4375 C 25.765625 -18.0625 24.625 -17.039062 23.125 -16.375 C 24.957031 -15.832031 26.40625 -14.859375 27.46875 -13.453125 C 28.53125 -12.046875 29.0625 -10.304688 29.0625 -8.234375 Z M 22.8125 -9.40625 C 22.8125 -10.21875 22.644531 -10.945312 22.3125 -11.59375 C 21.988281 -12.238281 21.546875 -12.75 20.984375 -13.125 C 20.429688 -13.5 19.796875 -13.6875 19.078125 -13.6875 L 9.546875 -13.6875 L 9.546875 -5.265625 L 18.765625 -5.265625 C 19.515625 -5.265625 20.195312 -5.453125 20.8125 -5.828125 C 21.425781 -6.203125 21.910156 -6.703125 22.265625 -7.328125 C 22.628906 -7.960938 22.8125 -8.65625 22.8125 -9.40625 Z M 9.546875 -26.640625 L 9.546875 -18.578125 L 17.8125 -18.578125 C 18.507812 -18.578125 19.140625 -18.742188 19.703125 -19.078125 C 20.273438 -19.410156 20.734375 -19.875 21.078125 -20.46875 C 21.421875 -21.070312 21.59375 -21.796875 21.59375 -22.640625 C 21.59375 -23.441406 21.4375 -24.144531 21.125 -24.75 C 20.8125 -25.351562 20.390625 -25.816406 19.859375 -26.140625 C 19.335938 -26.472656 18.75 -26.640625 18.09375 -26.640625 Z M 9.546875 -26.640625 "/></g></g></g></svg>