<svg xmlns="http://www.w3.org/2000/svg" xmlns:xlink="http://www.w3.org/1999/xlink" width="500" zoomAndPan="magnify" viewBox="0 0 375 187.499995" height="250" preserveAspectRatio="xMidYMid meet" version="1.0"><defs><clipPath id="b99754b36e"><path d="M 0.5 31.292969 L 374.277344 31.292969 L 374.277344 134.5625 L 0.5 134.5625 Z M 0.5 31.292969 " clip-rule="nonzero"/></clipPath></defs><g clip-path="url(#b99754b36e)"><path fill="#ffffff" d="M 187.390625 47.46875 L 374.652344 134.214844 L 188.109375 31.972656 L 187.796875 31.355469 L 187.390625 31.578125 L 186.980469 31.355469 L 186.667969 31.972656 L 0.125 134.214844 L 187.390625 47.46875 " fill-opacity="1" fill-rule="nonzero"/></g><path fill="#ffffff" d="M 74.9375 119.734375 L 74.9375 153.578125 L 71.640625 153.578125 L 71.640625 137.757812 L 51.585938 137.757812 L 51.585938 153.578125 L 48.242188 153.578125 L 48.242188 119.734375 L 51.585938 119.734375 L 51.585938 134.792969 L 71.640625 134.792969 L 71.640625 119.734375 Z M 74.9375 119.734375 " fill-opacity="1" fill-rule="nonzero"/><path fill="#ffffff" d="M 97.054688 153.808594 C 94.671875 153.808594 92.507812 153.339844 90.566406 152.386719 C 88.632812 151.4375 86.964844 150.148438 85.566406 148.515625 C 84.164062 146.871094 83.085938 145.023438 82.324219 142.96875 C 81.5625 140.917969 81.183594 138.816406 81.183594 136.664062 C 81.183594 134.40625 81.578125 132.253906 82.375 130.210938 C 83.167969 128.15625 84.285156 126.332031 85.734375 124.730469 C 87.175781 123.121094 88.867188 121.847656 90.796875 120.910156 C 92.738281 119.972656 94.839844 119.503906 97.101562 119.503906 C 99.484375 119.503906 101.640625 119.996094 103.574219 120.976562 C 105.515625 121.960938 107.171875 123.277344 108.554688 124.929688 C 109.945312 126.585938 111.019531 128.433594 111.78125 130.476562 C 112.542969 132.507812 112.925781 134.578125 112.925781 136.699219 C 112.925781 138.960938 112.527344 141.117188 111.734375 143.167969 C 110.9375 145.210938 109.820312 147.035156 108.390625 148.644531 C 106.964844 150.246094 105.28125 151.507812 103.34375 152.4375 C 101.398438 153.355469 99.304688 153.808594 97.054688 153.808594 Z M 84.527344 136.664062 C 84.527344 138.507812 84.824219 140.28125 85.417969 141.976562 C 86.023438 143.675781 86.882812 145.1875 88 146.511719 C 89.113281 147.828125 90.4375 148.875 91.972656 149.65625 C 93.515625 150.429688 95.207031 150.8125 97.054688 150.8125 C 98.992188 150.8125 100.730469 150.414062 102.265625 149.605469 C 103.808594 148.789062 105.128906 147.710938 106.222656 146.363281 C 107.324219 145.003906 108.160156 143.492188 108.722656 141.8125 C 109.292969 140.125 109.582031 138.410156 109.582031 136.664062 C 109.582031 134.824219 109.273438 133.054688 108.671875 131.367188 C 108.074219 129.679688 107.214844 128.171875 106.089844 126.832031 C 104.964844 125.5 103.632812 124.449219 102.101562 123.6875 C 100.578125 122.929688 98.894531 122.546875 97.054688 122.546875 C 95.140625 122.546875 93.417969 122.945312 91.875 123.738281 C 90.339844 124.535156 89.019531 125.609375 87.917969 126.964844 C 86.824219 128.316406 85.984375 129.828125 85.402344 131.515625 C 84.816406 133.195312 84.527344 134.910156 84.527344 136.664062 Z M 84.527344 136.664062 " fill-opacity="1" fill-rule="nonzero"/><path fill="#ffffff" d="M 149.199219 153.578125 L 149.199219 126.023438 L 136.953125 147.421875 L 134.851562 147.421875 L 122.554688 126.023438 L 122.554688 153.578125 L 119.210938 153.578125 L 119.210938 119.734375 L 122.652344 119.734375 L 135.84375 142.902344 L 149.148438 119.734375 L 152.527344 119.734375 L 152.527344 153.578125 Z M 149.199219 153.578125 " fill-opacity="1" fill-rule="nonzero"/><path fill="#ffffff" d="M 183.75 150.617188 L 183.75 153.578125 L 161.011719 153.578125 L 161.011719 119.734375 L 183.320312 119.734375 L 183.320312 122.695312 L 164.355469 122.695312 L 164.355469 134.894531 L 180.886719 134.894531 L 180.886719 137.707031 L 164.355469 137.707031 L 164.355469 150.617188 Z M 183.75 150.617188 " fill-opacity="1" fill-rule="nonzero"/><path fill="#ffffff" d="M 195.21875 136.417969 C 195.21875 134.355469 195.589844 132.328125 196.34375 130.34375 C 197.09375 128.355469 198.179688 126.546875 199.605469 124.914062 C 201.035156 123.273438 202.785156 121.96875 204.851562 121.007812 C 206.910156 120.039062 209.261719 119.550781 211.902344 119.550781 C 215.019531 119.550781 217.714844 120.238281 219.976562 121.605469 C 222.25 122.960938 223.941406 124.742188 225.058594 126.933594 L 220.011719 130.410156 C 219.433594 129.140625 218.6875 128.136719 217.757812 127.398438 C 216.839844 126.648438 215.859375 126.121094 214.8125 125.824219 C 213.761719 125.519531 212.730469 125.359375 211.71875 125.359375 C 210.0625 125.359375 208.625 125.699219 207.398438 126.371094 C 206.175781 127.03125 205.148438 127.90625 204.320312 128.984375 C 203.492188 130.070312 202.882812 131.277344 202.484375 132.609375 C 202.085938 133.945312 201.886719 135.28125 201.886719 136.613281 C 201.886719 138.105469 202.125 139.542969 202.601562 140.933594 C 203.082031 142.316406 203.761719 143.539062 204.636719 144.609375 C 205.503906 145.667969 206.554688 146.507812 207.78125 147.125 C 209.003906 147.746094 210.347656 148.050781 211.816406 148.050781 C 212.863281 148.050781 213.921875 147.878906 214.996094 147.539062 C 216.074219 147.1875 217.074219 146.628906 217.992188 145.867188 C 218.917969 145.097656 219.636719 144.109375 220.160156 142.902344 L 225.539062 146 C 224.863281 147.6875 223.769531 149.121094 222.261719 150.300781 C 220.757812 151.472656 219.070312 152.363281 217.195312 152.964844 C 215.316406 153.5625 213.460938 153.859375 211.621094 153.859375 C 209.203125 153.859375 206.988281 153.363281 204.984375 152.371094 C 202.984375 151.367188 201.261719 150.03125 199.820312 148.363281 C 198.371094 146.6875 197.242188 144.816406 196.425781 142.738281 C 195.621094 140.652344 195.21875 138.546875 195.21875 136.417969 Z M 195.21875 136.417969 " fill-opacity="1" fill-rule="nonzero"/><path fill="#ffffff" d="M 229.96875 153.578125 L 229.96875 119.734375 L 236.554688 119.734375 L 236.554688 147.820312 L 253.800781 147.820312 L 253.800781 153.578125 Z M 229.96875 153.578125 " fill-opacity="1" fill-rule="nonzero"/><path fill="#ffffff" d="M 272.152344 153.808594 C 269.445312 153.808594 267.144531 153.359375 265.25 152.453125 C 263.363281 151.550781 261.839844 150.300781 260.683594 148.710938 C 259.523438 147.125 258.671875 145.320312 258.132812 143.300781 C 257.589844 141.28125 257.324219 139.179688 257.324219 136.996094 L 257.324219 119.734375 L 263.910156 119.734375 L 263.910156 136.996094 C 263.910156 138.386719 264.042969 139.742188 264.304688 141.066406 C 264.578125 142.390625 265.035156 143.578125 265.664062 144.625 C 266.300781 145.675781 267.144531 146.503906 268.195312 147.105469 C 269.242188 147.703125 270.546875 148 272.101562 148 C 273.691406 148 275.015625 147.695312 276.074219 147.074219 C 277.140625 146.457031 277.984375 145.625 278.605469 144.574219 C 279.222656 143.527344 279.671875 142.347656 279.960938 141.035156 C 280.246094 139.710938 280.394531 138.363281 280.394531 136.996094 L 280.394531 119.734375 L 286.929688 119.734375 L 286.929688 136.996094 C 286.929688 139.3125 286.648438 141.492188 286.085938 143.53125 C 285.53125 145.5625 284.664062 147.351562 283.472656 148.894531 C 282.28125 150.429688 280.746094 151.632812 278.871094 152.503906 C 276.992188 153.375 274.753906 153.808594 272.152344 153.808594 Z M 272.152344 153.808594 " fill-opacity="1" fill-rule="nonzero"/><path fill="#ffffff" d="M 320.808594 144.855469 C 320.808594 146.769531 320.316406 148.363281 319.335938 149.65625 C 318.347656 150.9375 317.023438 151.914062 315.363281 152.585938 C 313.695312 153.246094 311.875 153.578125 309.902344 153.578125 L 293.550781 153.578125 L 293.550781 119.734375 L 311.671875 119.734375 C 313.261719 119.734375 314.632812 120.160156 315.792969 121.007812 C 316.949219 121.847656 317.835938 122.929688 318.457031 124.253906 C 319.074219 125.566406 319.382812 126.933594 319.382812 128.355469 C 319.382812 129.976562 318.96875 131.527344 318.140625 132.992188 C 317.316406 134.445312 316.105469 135.53125 314.519531 136.234375 C 316.457031 136.808594 317.992188 137.839844 319.117188 139.328125 C 320.246094 140.816406 320.808594 142.664062 320.808594 144.855469 Z M 314.1875 143.613281 C 314.1875 142.753906 314.007812 141.984375 313.65625 141.296875 C 313.3125 140.617188 312.847656 140.074219 312.25 139.675781 C 311.664062 139.277344 310.992188 139.082031 310.230469 139.082031 L 300.136719 139.082031 L 300.136719 148 L 309.902344 148 C 310.695312 148 311.414062 147.800781 312.070312 147.40625 C 312.71875 147.007812 313.230469 146.476562 313.609375 145.816406 C 313.992188 145.144531 314.1875 144.410156 314.1875 143.613281 Z M 300.136719 125.359375 L 300.136719 133.902344 L 308.890625 133.902344 C 309.628906 133.902344 310.296875 133.726562 310.894531 133.371094 C 311.496094 133.019531 311.984375 132.527344 312.351562 131.898438 C 312.714844 131.261719 312.894531 130.492188 312.894531 129.597656 C 312.894531 128.75 312.730469 128.003906 312.398438 127.363281 C 312.070312 126.726562 311.621094 126.234375 311.058594 125.890625 C 310.503906 125.539062 309.882812 125.359375 309.1875 125.359375 Z M 300.136719 125.359375 " fill-opacity="1" fill-rule="nonzero"/></svg>