<svg xmlns="http://www.w3.org/2000/svg" xmlns:xlink="http://www.w3.org/1999/xlink" width="500" zoomAndPan="magnify" viewBox="0 0 375 374.999991" height="500" preserveAspectRatio="xMidYMid meet" version="1.0"><defs><g/><clipPath id="fdc71c5b5d"><path d="M 18.636719 37.5 L 356.019531 37.5 L 356.019531 130.621094 L 18.636719 130.621094 Z M 18.636719 37.5 " clip-rule="nonzero"/></clipPath></defs><rect x="-37.5" width="450" fill="#ffffff" y="-37.499999" height="449.999989" fill-opacity="1"/><rect x="-37.5" width="450" fill="#000000" y="-37.499999" height="449.999989" fill-opacity="1"/><g fill="#ffffff" fill-opacity="1"><g transform="translate(5.280283, 227.426824)"><g><path d="M 79.5 -86.96875 L 79.5 0 L 71.046875 0 L 71.046875 -40.671875 L 19.484375 -40.671875 L 19.484375 0 L 10.90625 0 L 10.90625 -86.96875 L 19.484375 -86.96875 L 19.484375 -48.265625 L 71.046875 -48.265625 L 71.046875 -86.96875 Z M 79.5 -86.96875 "/></g></g></g><g fill="#ffffff" fill-opacity="1"><g transform="translate(95.685684, 227.426824)"><g><path d="M 45.9375 0.609375 C 39.8125 0.609375 34.257812 -0.613281 29.28125 -3.0625 C 24.300781 -5.507812 20.015625 -8.835938 16.421875 -13.046875 C 12.828125 -17.253906 10.046875 -21.988281 8.078125 -27.25 C 6.117188 -32.519531 5.140625 -37.929688 5.140625 -43.484375 C 5.140625 -49.285156 6.160156 -54.816406 8.203125 -60.078125 C 10.242188 -65.347656 13.125 -70.046875 16.84375 -74.171875 C 20.5625 -78.296875 24.910156 -81.5625 29.890625 -83.96875 C 34.867188 -86.382812 40.257812 -87.59375 46.0625 -87.59375 C 52.1875 -87.59375 57.738281 -86.328125 62.71875 -83.796875 C 67.695312 -81.265625 71.960938 -77.875 75.515625 -73.625 C 79.066406 -69.375 81.820312 -64.632812 83.78125 -59.40625 C 85.75 -54.1875 86.734375 -48.835938 86.734375 -43.359375 C 86.734375 -37.566406 85.710938 -32.035156 83.671875 -26.765625 C 81.628906 -21.492188 78.769531 -16.796875 75.09375 -12.671875 C 71.414062 -8.554688 67.085938 -5.3125 62.109375 -2.9375 C 57.128906 -0.570312 51.738281 0.609375 45.9375 0.609375 Z M 13.71875 -43.484375 C 13.71875 -38.742188 14.492188 -34.191406 16.046875 -29.828125 C 17.597656 -25.460938 19.800781 -21.582031 22.65625 -18.1875 C 25.519531 -14.800781 28.929688 -12.109375 32.890625 -10.109375 C 36.847656 -8.109375 41.195312 -7.109375 45.9375 -7.109375 C 50.914062 -7.109375 55.382812 -8.148438 59.34375 -10.234375 C 63.3125 -12.316406 66.703125 -15.09375 69.515625 -18.5625 C 72.335938 -22.03125 74.484375 -25.925781 75.953125 -30.25 C 77.421875 -34.582031 78.15625 -38.992188 78.15625 -43.484375 C 78.15625 -48.222656 77.378906 -52.753906 75.828125 -57.078125 C 74.273438 -61.410156 72.046875 -65.289062 69.140625 -68.71875 C 66.242188 -72.15625 62.835938 -74.851562 58.921875 -76.8125 C 55.003906 -78.769531 50.675781 -79.75 45.9375 -79.75 C 41.039062 -79.75 36.609375 -78.726562 32.640625 -76.6875 C 28.679688 -74.644531 25.289062 -71.882812 22.46875 -68.40625 C 19.65625 -64.9375 17.492188 -61.035156 15.984375 -56.703125 C 14.472656 -52.378906 13.71875 -47.972656 13.71875 -43.484375 Z M 13.71875 -43.484375 "/></g></g></g><g fill="#ffffff" fill-opacity="1"><g transform="translate(187.683593, 227.426824)"><g><path d="M 87.953125 0 L 87.953125 -70.8125 L 56.46875 -15.796875 L 51.078125 -15.796875 L 19.484375 -70.8125 L 19.484375 0 L 10.90625 0 L 10.90625 -86.96875 L 19.71875 -86.96875 L 53.65625 -27.4375 L 87.828125 -86.96875 L 96.53125 -86.96875 L 96.53125 0 Z M 87.953125 0 "/></g></g></g><g fill="#ffffff" fill-opacity="1"><g transform="translate(295.116563, 227.426824)"><g><path d="M 69.328125 -7.59375 L 69.328125 0 L 10.90625 0 L 10.90625 -86.96875 L 68.234375 -86.96875 L 68.234375 -79.375 L 19.484375 -79.375 L 19.484375 -48.015625 L 61.984375 -48.015625 L 61.984375 -40.796875 L 19.484375 -40.796875 L 19.484375 -7.59375 Z M 69.328125 -7.59375 "/></g></g></g><g fill="#ffffff" fill-opacity="1"><g transform="translate(22.124122, 325.702906)"><g><path d="M 3.796875 -44.09375 C 3.796875 -49.40625 4.753906 -54.613281 6.671875 -59.71875 C 8.597656 -64.820312 11.394531 -69.476562 15.0625 -73.6875 C 18.738281 -77.894531 23.226562 -81.242188 28.53125 -83.734375 C 33.84375 -86.222656 39.890625 -87.46875 46.671875 -87.46875 C 54.671875 -87.46875 61.585938 -85.710938 67.421875 -82.203125 C 73.265625 -78.691406 77.617188 -74.117188 80.484375 -68.484375 L 67.5 -59.53125 C 66.03125 -62.800781 64.109375 -65.394531 61.734375 -67.3125 C 59.367188 -69.226562 56.835938 -70.570312 54.140625 -71.34375 C 51.453125 -72.125 48.800781 -72.515625 46.1875 -72.515625 C 41.9375 -72.515625 38.238281 -71.65625 35.09375 -69.9375 C 31.945312 -68.226562 29.3125 -65.984375 27.1875 -63.203125 C 25.070312 -60.429688 23.503906 -57.328125 22.484375 -53.890625 C 21.460938 -50.460938 20.953125 -47.035156 20.953125 -43.609375 C 20.953125 -39.773438 21.5625 -36.078125 22.78125 -32.515625 C 24.007812 -28.960938 25.742188 -25.816406 27.984375 -23.078125 C 30.234375 -20.347656 32.929688 -18.1875 36.078125 -16.59375 C 39.222656 -15 42.671875 -14.203125 46.421875 -14.203125 C 49.117188 -14.203125 51.851562 -14.648438 54.625 -15.546875 C 57.40625 -16.453125 59.976562 -17.882812 62.34375 -19.84375 C 64.71875 -21.800781 66.554688 -24.332031 67.859375 -27.4375 L 81.703125 -19.484375 C 79.992188 -15.148438 77.195312 -11.472656 73.3125 -8.453125 C 69.4375 -5.429688 65.085938 -3.144531 60.265625 -1.59375 C 55.453125 -0.0390625 50.675781 0.734375 45.9375 0.734375 C 39.726562 0.734375 34.050781 -0.550781 28.90625 -3.125 C 23.757812 -5.695312 19.328125 -9.125 15.609375 -13.40625 C 11.898438 -17.695312 9.003906 -22.515625 6.921875 -27.859375 C 4.835938 -33.210938 3.796875 -38.625 3.796875 -44.09375 Z M 3.796875 -44.09375 "/></g></g></g><g fill="#ffffff" fill-opacity="1"><g transform="translate(106.159485, 325.702906)"><g><path d="M 9.0625 0 L 9.0625 -86.96875 L 25.96875 -86.96875 L 25.96875 -14.828125 L 70.3125 -14.828125 L 70.3125 0 Z M 9.0625 0 "/></g></g></g><g fill="#ffffff" fill-opacity="1"><g transform="translate(177.699806, 325.702906)"><g><path d="M 45.9375 0.609375 C 39 0.609375 33.097656 -0.550781 28.234375 -2.875 C 23.378906 -5.207031 19.457031 -8.414062 16.46875 -12.5 C 13.488281 -16.582031 11.304688 -21.210938 9.921875 -26.390625 C 8.535156 -31.578125 7.84375 -36.988281 7.84375 -42.625 L 7.84375 -86.96875 L 24.75 -86.96875 L 24.75 -42.625 C 24.75 -39.03125 25.09375 -35.539062 25.78125 -32.15625 C 26.476562 -28.769531 27.644531 -25.726562 29.28125 -23.03125 C 30.914062 -20.332031 33.078125 -18.207031 35.765625 -16.65625 C 38.460938 -15.101562 41.8125 -14.328125 45.8125 -14.328125 C 49.894531 -14.328125 53.300781 -15.125 56.03125 -16.71875 C 58.769531 -18.3125 60.9375 -20.453125 62.53125 -23.140625 C 64.125 -25.835938 65.285156 -28.878906 66.015625 -32.265625 C 66.753906 -35.660156 67.125 -39.113281 67.125 -42.625 L 67.125 -86.96875 L 83.90625 -86.96875 L 83.90625 -42.625 C 83.90625 -36.664062 83.191406 -31.070312 81.765625 -25.84375 C 80.335938 -20.613281 78.09375 -16.019531 75.03125 -12.0625 C 71.96875 -8.101562 68.023438 -5 63.203125 -2.75 C 58.390625 -0.507812 52.632812 0.609375 45.9375 0.609375 Z M 45.9375 0.609375 "/></g></g></g><g fill="#ffffff" fill-opacity="1"><g transform="translate(269.575203, 325.702906)"><g><path d="M 79.140625 -22.421875 C 79.140625 -17.515625 77.875 -13.40625 75.34375 -10.09375 C 72.8125 -6.789062 69.398438 -4.28125 65.109375 -2.5625 C 60.816406 -0.851562 56.140625 0 51.078125 0 L 9.0625 0 L 9.0625 -86.96875 L 55.609375 -86.96875 C 59.691406 -86.96875 63.222656 -85.882812 66.203125 -83.71875 C 69.191406 -81.5625 71.476562 -78.785156 73.0625 -75.390625 C 74.65625 -72.003906 75.453125 -68.472656 75.453125 -64.796875 C 75.453125 -60.640625 74.390625 -56.679688 72.265625 -52.921875 C 70.148438 -49.160156 67.050781 -46.382812 62.96875 -44.59375 C 67.945312 -43.125 71.882812 -40.46875 74.78125 -36.625 C 77.6875 -32.789062 79.140625 -28.054688 79.140625 -22.421875 Z M 62.109375 -25.609375 C 62.109375 -27.804688 61.65625 -29.78125 60.75 -31.53125 C 59.851562 -33.289062 58.648438 -34.679688 57.140625 -35.703125 C 55.628906 -36.722656 53.894531 -37.234375 51.9375 -37.234375 L 25.96875 -37.234375 L 25.96875 -14.328125 L 51.078125 -14.328125 C 53.117188 -14.328125 54.976562 -14.835938 56.65625 -15.859375 C 58.332031 -16.878906 59.660156 -18.25 60.640625 -19.96875 C 61.617188 -21.6875 62.109375 -23.566406 62.109375 -25.609375 Z M 25.96875 -72.515625 L 25.96875 -50.59375 L 48.515625 -50.59375 C 50.390625 -50.59375 52.101562 -51.039062 53.65625 -51.9375 C 55.207031 -52.832031 56.453125 -54.097656 57.390625 -55.734375 C 58.328125 -57.367188 58.796875 -59.332031 58.796875 -61.625 C 58.796875 -63.820312 58.367188 -65.738281 57.515625 -67.375 C 56.660156 -69.007812 55.515625 -70.273438 54.078125 -71.171875 C 52.648438 -72.066406 51.039062 -72.515625 49.25 -72.515625 Z M 25.96875 -72.515625 "/></g></g></g><g clip-path="url(#fdc71c5b5d)"><path fill="#ffffff" d="M 187.5 52.085938 L 356.359375 130.308594 L 188.148438 38.113281 L 187.867188 37.554688 L 187.5 37.757812 L 187.128906 37.554688 L 186.847656 38.113281 L 18.636719 130.308594 L 187.5 52.085938 " fill-opacity="1" fill-rule="nonzero"/></g></svg>