<svg xmlns="http://www.w3.org/2000/svg" xmlns:xlink="http://www.w3.org/1999/xlink" width="500" zoomAndPan="magnify" viewBox="0 0 375 374.999991" height="500" preserveAspectRatio="xMidYMid meet" version="1.0"><defs><g/><clipPath id="64b587354a"><path d="M 10.695312 16.5 L 363.945312 16.5 L 363.945312 114 L 10.695312 114 Z M 10.695312 16.5 " clip-rule="nonzero"/></clipPath></defs><g fill="#ffffff" fill-opacity="1"><g transform="translate(-3.290069, 215.35966)"><g><path d="M 83.25 -91.0625 L 83.25 0 L 74.390625 0 L 74.390625 -42.578125 L 20.390625 -42.578125 L 20.390625 0 L 11.421875 0 L 11.421875 -91.0625 L 20.390625 -91.0625 L 20.390625 -50.53125 L 74.390625 -50.53125 L 74.390625 -91.0625 Z M 83.25 -91.0625 "/></g></g></g><g fill="#ffffff" fill-opacity="1"><g transform="translate(91.367372, 215.35966)"><g><path d="M 48.09375 0.640625 C 41.6875 0.640625 35.875 -0.640625 30.65625 -3.203125 C 25.4375 -5.765625 20.945312 -9.25 17.1875 -13.65625 C 13.425781 -18.0625 10.519531 -23.019531 8.46875 -28.53125 C 6.414062 -34.050781 5.390625 -39.71875 5.390625 -45.53125 C 5.390625 -51.601562 6.457031 -57.394531 8.59375 -62.90625 C 10.726562 -68.425781 13.738281 -73.34375 17.625 -77.65625 C 21.519531 -81.976562 26.078125 -85.398438 31.296875 -87.921875 C 36.515625 -90.441406 42.160156 -91.703125 48.234375 -91.703125 C 54.640625 -91.703125 60.453125 -90.375 65.671875 -87.71875 C 70.890625 -85.070312 75.359375 -81.523438 79.078125 -77.078125 C 82.796875 -72.640625 85.679688 -67.679688 87.734375 -62.203125 C 89.785156 -56.734375 90.8125 -51.132812 90.8125 -45.40625 C 90.8125 -39.332031 89.742188 -33.535156 87.609375 -28.015625 C 85.472656 -22.503906 82.476562 -17.585938 78.625 -13.265625 C 74.78125 -8.953125 70.25 -5.554688 65.03125 -3.078125 C 59.8125 -0.597656 54.164062 0.640625 48.09375 0.640625 Z M 14.359375 -45.53125 C 14.359375 -40.570312 15.171875 -35.804688 16.796875 -31.234375 C 18.421875 -26.660156 20.726562 -22.597656 23.71875 -19.046875 C 26.71875 -15.492188 30.289062 -12.671875 34.4375 -10.578125 C 38.582031 -8.484375 43.132812 -7.4375 48.09375 -7.4375 C 53.3125 -7.4375 57.992188 -8.523438 62.140625 -10.703125 C 66.285156 -12.890625 69.832031 -15.800781 72.78125 -19.4375 C 75.738281 -23.070312 77.984375 -27.15625 79.515625 -31.6875 C 81.054688 -36.21875 81.828125 -40.832031 81.828125 -45.53125 C 81.828125 -50.488281 81.015625 -55.234375 79.390625 -59.765625 C 77.765625 -64.296875 75.4375 -68.359375 72.40625 -71.953125 C 69.375 -75.546875 65.800781 -78.367188 61.6875 -80.421875 C 57.582031 -82.472656 53.050781 -83.5 48.09375 -83.5 C 42.96875 -83.5 38.332031 -82.429688 34.1875 -80.296875 C 30.039062 -78.160156 26.488281 -75.273438 23.53125 -71.640625 C 20.582031 -68.003906 18.316406 -63.921875 16.734375 -59.390625 C 15.148438 -54.859375 14.359375 -50.238281 14.359375 -45.53125 Z M 14.359375 -45.53125 "/></g></g></g><g fill="#ffffff" fill-opacity="1"><g transform="translate(187.692219, 215.35966)"><g><path d="M 92.09375 0 L 92.09375 -74.140625 L 59.125 -16.546875 L 53.484375 -16.546875 L 20.390625 -74.140625 L 20.390625 0 L 11.421875 0 L 11.421875 -91.0625 L 20.65625 -91.0625 L 56.1875 -28.734375 L 91.96875 -91.0625 L 101.078125 -91.0625 L 101.078125 0 Z M 92.09375 0 "/></g></g></g><g fill="#ffffff" fill-opacity="1"><g transform="translate(300.178085, 215.35966)"><g><path d="M 72.59375 -7.953125 L 72.59375 0 L 11.421875 0 L 11.421875 -91.0625 L 71.4375 -91.0625 L 71.4375 -83.109375 L 20.390625 -83.109375 L 20.390625 -50.28125 L 64.90625 -50.28125 L 64.90625 -42.71875 L 20.390625 -42.71875 L 20.390625 -7.953125 Z M 72.59375 -7.953125 "/></g></g></g><g fill="#ffffff" fill-opacity="1"><g transform="translate(14.345987, 318.258)"><g><path d="M 3.96875 -46.171875 C 3.96875 -51.734375 4.972656 -57.1875 6.984375 -62.53125 C 8.992188 -67.875 11.921875 -72.742188 15.765625 -77.140625 C 19.617188 -81.546875 24.320312 -85.050781 29.875 -87.65625 C 35.4375 -90.269531 41.769531 -91.578125 48.875 -91.578125 C 57.25 -91.578125 64.492188 -89.738281 70.609375 -86.0625 C 76.722656 -82.382812 81.273438 -77.597656 84.265625 -71.703125 L 70.671875 -62.34375 C 69.128906 -65.757812 67.117188 -68.472656 64.640625 -70.484375 C 62.160156 -72.492188 59.507812 -73.90625 56.6875 -74.71875 C 53.863281 -75.53125 51.085938 -75.9375 48.359375 -75.9375 C 43.910156 -75.9375 40.039062 -75.035156 36.75 -73.234375 C 33.457031 -71.441406 30.695312 -69.09375 28.46875 -66.1875 C 26.25 -63.28125 24.601562 -60.03125 23.53125 -56.4375 C 22.46875 -52.84375 21.9375 -49.25 21.9375 -45.65625 C 21.9375 -41.644531 22.578125 -37.773438 23.859375 -34.046875 C 25.140625 -30.328125 26.957031 -27.035156 29.3125 -24.171875 C 31.664062 -21.304688 34.488281 -19.039062 37.78125 -17.375 C 41.070312 -15.707031 44.679688 -14.875 48.609375 -14.875 C 51.429688 -14.875 54.296875 -15.34375 57.203125 -16.28125 C 60.109375 -17.226562 62.800781 -18.726562 65.28125 -20.78125 C 67.757812 -22.832031 69.6875 -25.484375 71.0625 -28.734375 L 85.546875 -20.390625 C 83.753906 -15.859375 80.828125 -12.007812 76.765625 -8.84375 C 72.703125 -5.6875 68.144531 -3.296875 63.09375 -1.671875 C 58.050781 -0.046875 53.050781 0.765625 48.09375 0.765625 C 41.59375 0.765625 35.648438 -0.578125 30.265625 -3.265625 C 24.878906 -5.960938 20.238281 -9.554688 16.34375 -14.046875 C 12.457031 -18.535156 9.421875 -23.578125 7.234375 -29.171875 C 5.054688 -34.773438 3.96875 -40.441406 3.96875 -46.171875 Z M 3.96875 -46.171875 "/></g></g></g><g fill="#ffffff" fill-opacity="1"><g transform="translate(102.333786, 318.258)"><g><path d="M 9.484375 0 L 9.484375 -91.0625 L 27.1875 -91.0625 L 27.1875 -15.515625 L 73.625 -15.515625 L 73.625 0 Z M 9.484375 0 "/></g></g></g><g fill="#ffffff" fill-opacity="1"><g transform="translate(177.238864, 318.258)"><g><path d="M 48.09375 0.640625 C 40.832031 0.640625 34.65625 -0.578125 29.5625 -3.015625 C 24.476562 -5.453125 20.375 -8.804688 17.25 -13.078125 C 14.125 -17.359375 11.832031 -22.210938 10.375 -27.640625 C 8.925781 -33.066406 8.203125 -38.734375 8.203125 -44.640625 L 8.203125 -91.0625 L 25.90625 -91.0625 L 25.90625 -44.640625 C 25.90625 -40.878906 26.269531 -37.222656 27 -33.671875 C 27.726562 -30.117188 28.945312 -26.929688 30.65625 -24.109375 C 32.363281 -21.285156 34.628906 -19.0625 37.453125 -17.4375 C 40.273438 -15.8125 43.78125 -15 47.96875 -15 C 52.25 -15 55.820312 -15.832031 58.6875 -17.5 C 61.550781 -19.175781 63.816406 -21.421875 65.484375 -24.234375 C 67.148438 -27.054688 68.367188 -30.242188 69.140625 -33.796875 C 69.910156 -37.347656 70.296875 -40.960938 70.296875 -44.640625 L 70.296875 -91.0625 L 87.859375 -91.0625 L 87.859375 -44.640625 C 87.859375 -38.390625 87.109375 -32.53125 85.609375 -27.0625 C 84.117188 -21.59375 81.769531 -16.78125 78.5625 -12.625 C 75.351562 -8.476562 71.226562 -5.226562 66.1875 -2.875 C 61.144531 -0.53125 55.113281 0.640625 48.09375 0.640625 Z M 48.09375 0.640625 "/></g></g></g><g fill="#ffffff" fill-opacity="1"><g transform="translate(273.435437, 318.258)"><g><path d="M 82.859375 -23.46875 C 82.859375 -18.34375 81.53125 -14.046875 78.875 -10.578125 C 76.226562 -7.117188 72.660156 -4.488281 68.171875 -2.6875 C 63.679688 -0.894531 58.785156 0 53.484375 0 L 9.484375 0 L 9.484375 -91.0625 L 58.234375 -91.0625 C 62.503906 -91.0625 66.203125 -89.925781 69.328125 -87.65625 C 72.453125 -85.394531 74.847656 -82.488281 76.515625 -78.9375 C 78.179688 -75.394531 79.015625 -71.703125 79.015625 -67.859375 C 79.015625 -63.492188 77.898438 -59.34375 75.671875 -55.40625 C 73.453125 -51.476562 70.203125 -48.570312 65.921875 -46.6875 C 71.140625 -45.144531 75.265625 -42.363281 78.296875 -38.34375 C 81.335938 -34.332031 82.859375 -29.375 82.859375 -23.46875 Z M 65.03125 -26.8125 C 65.03125 -29.113281 64.554688 -31.179688 63.609375 -33.015625 C 62.671875 -34.859375 61.410156 -36.316406 59.828125 -37.390625 C 58.253906 -38.460938 56.441406 -39 54.390625 -39 L 27.1875 -39 L 27.1875 -15 L 53.484375 -15 C 55.617188 -15 57.5625 -15.535156 59.3125 -16.609375 C 61.070312 -17.679688 62.460938 -19.113281 63.484375 -20.90625 C 64.515625 -22.695312 65.03125 -24.664062 65.03125 -26.8125 Z M 27.1875 -75.9375 L 27.1875 -52.96875 L 50.796875 -52.96875 C 52.765625 -52.96875 54.5625 -53.4375 56.1875 -54.375 C 57.8125 -55.320312 59.113281 -56.648438 60.09375 -58.359375 C 61.070312 -60.066406 61.5625 -62.117188 61.5625 -64.515625 C 61.5625 -66.828125 61.113281 -68.835938 60.21875 -70.546875 C 59.320312 -72.253906 58.125 -73.578125 56.625 -74.515625 C 55.132812 -75.460938 53.445312 -75.9375 51.5625 -75.9375 Z M 27.1875 -75.9375 "/></g></g></g><g clip-path="url(#64b587354a)"><path fill="#ffffff" d="M 187.5 31.773438 L 364.300781 113.671875 L 188.179688 17.140625 L 187.882812 16.558594 L 187.5 16.769531 L 187.113281 16.558594 L 186.816406 17.140625 L 10.695312 113.671875 L 187.5 31.773438 " fill-opacity="1" fill-rule="nonzero"/></g></svg>